REM MD5 d1b90b9d6c6284969233bee6f48116b4
FILE "Shinsetsu Samurai Spirits - Bushidou Retsuden (Japan).bin" BINARY
  TRACK 01 MODE2/2352
    INDEX 01 00:00:00
  TRACK 02 AUDIO
    INDEX 00 62:39:12
    INDEX 01 62:41:12
  TRACK 03 AUDIO
    INDEX 00 63:44:63
    INDEX 01 63:46:63
  TRACK 04 AUDIO
    INDEX 00 65:09:11
    INDEX 01 65:11:11
REM LEADOUT 68:51:63
